<svg width="148" height="124" viewBox="0 0 148 124" fill="none" xmlns="http://www.w3.org/2000/svg">
<path fill-rule="evenodd" clip-rule="evenodd" d="M72.5435 102.111C72.5915 101.606 72.9194 101.138 73.1736 100.94C73.6065 100.601 73.8028 100.491 74.4754 100.398L74.1952 100.576C73.6303 100.928 73.0295 101.388 72.672 101.961C72.6267 102.034 72.6118 102.068 72.5435 102.111ZM86.4085 78.8727L86.4163 78.8461C87.6436 78.9094 89.3901 79.6569 90.5393 80.1882C90.7021 80.2636 90.9273 80.3978 91.0831 80.4498C90.9441 80.1262 90.1529 79.5055 89.8265 79.2814C89.1246 78.7989 88.4114 78.5889 88.2284 78.4718C89.4467 78.5284 90.7755 78.8887 91.8642 79.3747C92.0578 79.461 92.7706 79.8119 92.8565 79.9298L92.4845 80.2725C91.6448 81.0864 90.2426 81.6946 89.109 81.9851C88.3025 82.192 88.1031 81.7801 87.7369 81.3386C87.4508 80.9943 87.0018 80.5388 86.6603 80.2558C86.3663 80.0122 85.7738 79.8451 85.7211 79.7744C85.7632 79.7951 86.1134 79.8162 86.2152 79.833C87.1139 79.9813 87.9184 80.4412 88.6484 80.9373C88.7632 81.0154 88.8861 81.1153 88.9947 81.1723C88.9306 80.8854 88.112 80.0571 87.8774 79.8369C87.6596 79.6323 87.4605 79.4832 87.1978 79.304C87.0483 79.2022 86.574 78.9137 86.4089 78.8727H86.4085ZM67.7834 72.1994L67.8146 72.2267C67.6601 72.3458 67.5219 72.4664 67.3696 72.5956C67.2158 72.726 67.0901 72.8708 66.9445 72.9903C66.7134 73.1796 66.2915 73.7987 66.1872 73.8444C66.0045 73.9244 64.876 73.8678 64.6425 73.8417C63.4067 73.7023 62.1505 73.1839 61.7484 71.8965C61.5844 71.3714 61.5485 69.9942 61.1925 69.5723C61.1023 69.4649 61.0656 69.4829 60.9528 69.411L60.7213 69.4177L60.6682 69.4477C60.3224 69.6453 60.2767 70.1324 60.1682 70.5962C60.0546 71.081 59.957 71.5643 59.9277 72.0897C59.7849 74.6763 61.7886 76.0913 64.0429 76.6968C64.3533 76.7803 65.1672 77.0259 65.4436 77.0388C65.4244 76.2994 65.554 75.5323 65.8273 74.9523C66.1408 74.2871 66.3594 73.9502 67.089 73.684C67.7151 73.4556 68.3397 73.2175 68.9666 72.995C69.5705 72.7807 70.2509 72.4684 70.8474 72.3118C70.7916 72.409 70.7182 72.4895 70.6506 72.5824C70.2849 73.0836 70.0819 73.5591 69.7048 73.9818C69.617 74.0806 69.5619 74.1212 69.4573 74.2059C69.4054 74.248 69.1938 74.3695 69.1786 74.4015C69.5846 74.3027 70.0729 74.1126 70.4953 73.9799C71.6437 73.6188 72.6614 73.4228 73.6974 72.7822C73.868 72.6768 74.0613 72.5148 74.2252 72.4379C74.1667 72.5882 73.6475 73.1425 73.5491 73.2448C72.3401 74.5033 70.9434 74.8504 70.7443 74.9948C71.1327 75.0077 71.7913 74.9074 72.1766 74.8441C73.1853 74.6786 74.1971 74.3769 75.0422 73.8112C75.1734 73.7234 75.3862 73.5485 75.5025 73.4939C75.5396 73.8448 75.5688 74.4104 75.524 74.7559C75.4767 75.1178 75.3448 75.4605 75.285 75.8154C75.4533 75.731 75.759 75.4199 75.8745 75.2977C76.1759 74.9792 76.5463 74.3917 76.7091 73.9619L76.9792 73.1597C77.2189 73.4255 77.3633 73.9123 78.1554 74.2609C78.4181 74.3765 78.7409 74.4534 79.0544 74.4784C79.2672 74.4955 80.1248 74.4389 80.2013 74.4721C80.3489 74.5369 80.4964 75.0994 80.5534 75.2743C80.9317 76.438 81.0785 76.7581 81.2362 78.1021C80.7954 78.1419 80.6643 78.0736 80.2712 78.2938C79.7438 78.5889 79.0856 79.7299 78.8241 80.2823C77.9157 82.2017 77.6124 84.8285 77.6526 87.0091C77.6596 87.3998 77.6452 87.773 77.6893 88.1641C77.767 88.8508 78.1 89.3263 78.4224 89.7615C78.6258 90.0359 79.2648 90.8819 79.3917 91.1098C79.3862 91.1083 78.7534 90.8085 78.5052 90.7214C78.1753 90.6055 77.854 90.5192 77.4953 90.4626C76.1911 90.2565 73.9297 90.3283 72.6278 90.5555C72.2937 90.6137 71.9029 90.7191 71.5903 90.8257C71.2936 90.9271 70.756 91.1785 70.6631 91.207C70.7845 90.7624 71.0906 90.4427 71.2358 89.5714C71.3576 88.8403 71.2393 88.2204 71.1745 87.49C71.0516 86.1054 70.9411 84.7976 70.5952 83.5063C70.2119 82.0764 69.5159 80.433 68.5821 79.3294C68.5216 79.258 68.3588 79.0819 68.3018 79.0378C67.9431 78.7622 67.7085 78.5694 67.1908 78.5046C66.9992 78.4808 66.8551 78.5104 66.6861 78.5007C66.7919 77.3561 66.8871 76.739 67.1737 75.6698C67.2482 75.3922 67.3786 75.0487 67.4204 74.7813C67.2599 74.8761 66.8797 75.5593 66.7771 75.7783C66.5948 76.1671 66.4425 76.5262 66.3074 76.9517C66.0834 77.6571 65.7902 79.3919 65.6204 80.312C65.5829 80.515 65.4834 80.7796 65.4682 80.9584C65.4034 81.7052 66.1505 81.2379 66.5862 81.3136C67.3372 81.4444 68.1137 82.4777 68.0778 83.1366C68.0012 83.0461 67.8435 82.6748 67.751 82.5331C67.5921 82.2895 67.4992 82.2166 67.3208 82.0425C67.0265 81.7544 66.4515 81.5572 65.9749 81.827C65.4283 82.1361 64.9525 82.9934 64.6394 83.2448C64.3712 83.4602 64.2709 83.4044 63.9157 83.4052C64.3256 83.9974 65.1485 83.3853 65.3429 83.3381C65.3784 84.0212 65.6626 84.6013 65.5076 85.0553C65.4377 85.2606 65.2964 85.5085 65.2058 85.7119C63.7498 88.9921 63.1455 92.8918 64.0414 96.441C64.559 98.4908 65.6028 100.39 66.6572 101.796C66.9488 102.184 67.235 102.541 67.5305 102.889C68.0055 103.447 68.9096 104.404 69.469 104.9C69.7376 105.139 69.9851 105.406 70.286 105.569C70.425 105.645 70.507 105.646 70.637 105.699L70.984 105.689C70.9895 105.685 70.9985 105.673 71.0016 105.678L71.3658 105.485C71.4829 105.404 71.5758 105.307 71.6656 105.213C72.0466 104.813 73.0315 103.712 73.4 103.448C74.3841 102.741 75.6547 103.155 76.8879 102.206C77.8743 101.446 77.8412 100.79 78.1402 99.9836C78.2464 99.6975 78.3549 99.441 78.5091 99.199C78.6324 99.005 78.8487 98.6884 79.0205 98.5474C79.2367 98.3698 79.3562 98.1192 79.572 97.9342C80.0455 97.5286 81.2155 97.4127 81.5672 96.4137C81.8299 95.6673 81.3818 95.1173 81.1468 94.6434C81.0164 94.3799 80.8829 94.1297 80.7521 93.8603C80.5308 93.4044 80.6483 93.3888 80.8704 93.0535C81.0289 92.8142 81.1881 92.5995 81.3455 92.3684C82.3624 90.876 82.3046 90.5922 82.1215 88.6825C82.0473 87.9088 81.9111 87.3171 82.0044 86.5211C82.0442 86.1823 82.1141 85.893 82.2148 85.5866C82.3097 85.2973 82.4455 85.0545 82.554 84.7731C82.7574 84.2472 82.9444 83.4431 82.9346 82.8614C83.1447 82.9091 83.3418 83.0355 83.5951 83.0859C83.8266 83.1316 84.1487 83.0785 84.2705 82.8591C83.667 82.8353 83.6787 82.8829 83.1435 82.24C82.8772 81.9203 82.6106 81.599 82.207 81.3902C81.4692 81.0076 80.8641 81.4959 80.4898 82.0737C80.3719 82.2556 80.2505 82.4449 80.1474 82.6198C80.0908 82.4543 80.3079 82.0288 80.3828 81.875C80.6084 81.4116 80.9703 80.9959 81.5051 80.8858C81.833 80.8183 82.2726 80.9959 82.4654 80.8975C82.8589 80.6973 82.3261 79.7315 82.2101 79.2951C81.8783 78.0459 81.9896 77.3436 81.2916 75.9235C81.0863 75.5058 80.7517 74.9066 80.4773 74.6138C80.0897 74.2004 79.7805 74.3585 79.1098 73.8889C78.7702 73.6512 78.3361 73.2132 78.1152 72.7752C78.2561 72.7822 79.4557 73.066 79.7578 73.1246C80.4589 73.2612 80.6951 73.1866 81.2752 73.6426C81.5688 73.8733 81.9279 74.421 82.095 74.8961C82.271 75.3969 82.3647 76.0367 82.5056 76.5738L83.8219 76.1206C84.9032 75.7139 85.5103 75.5003 86.3605 74.7044L86.791 74.2422C87.7951 72.9981 87.9106 71.3917 87.3329 69.8166C87.2599 69.6179 87.0541 69.0293 86.9405 68.8759C86.8383 68.7373 86.827 68.7759 86.6888 68.6865L86.4186 68.6943C86.3164 68.7892 86.2594 68.7857 86.1852 68.9157C86.0907 69.0804 85.9787 69.7272 85.9506 69.9216C85.8729 70.4529 85.926 70.9026 85.7617 71.4117C85.3264 72.7592 83.8875 73.2593 82.5704 73.3916C81.3646 73.513 81.5594 73.4837 80.9734 72.9142C80.8883 72.8314 80.8282 72.801 80.7443 72.7229C80.3297 72.3345 79.7602 71.9679 79.1949 71.756C78.6902 71.5666 78.3334 71.5385 77.751 71.521C76.8672 71.494 76.1563 70.9061 75.4033 70.4787C74.2022 69.7971 72.8008 69.3595 71.3342 69.5336C70.6026 69.6203 69.316 69.9962 68.7843 70.4334L69.4589 70.3503C70.249 70.2371 70.4613 70.3413 71.1772 70.5045C71.4868 70.5751 71.4099 70.5353 71.4126 70.6325C71.3361 70.661 70.8056 70.6223 70.6506 70.627C69.8968 70.6504 69.2282 70.7156 68.536 71.0186C68.1016 71.2087 67.8307 71.4042 67.5215 71.6552C67.3681 71.7798 66.845 72.306 66.8661 72.6124L67.7834 72.2021V72.1994ZM74.8065 89.4609C74.4707 89.4703 73.7275 89.6444 73.5991 89.8505L76.2555 89.7771L76.3703 89.7666C76.1669 89.5679 75.4951 89.4418 75.1289 89.452L74.8065 89.4609ZM73.2278 89.0475C73.3688 89.0132 73.5097 88.9445 73.66 88.8953C74.105 88.7497 74.6234 88.6373 75.1055 88.6236C75.9413 88.5998 76.2005 88.7153 76.9496 88.8703C76.802 88.7114 76.3656 88.5131 76.1036 88.4308C75.401 88.209 74.6632 88.2274 73.9961 88.5377C73.7572 88.6486 73.3383 88.8875 73.2278 89.0479V89.0475ZM74.7588 85.4043C74.6066 82.8415 74.632 81.2004 75.1894 78.5592C75.237 78.334 75.3147 78.0732 75.3452 77.8624C75.1262 78.1236 74.8443 79.0331 74.7362 79.4602C74.3084 81.1524 74.1713 83.4774 74.6648 85.2009C74.7167 85.382 74.6995 85.373 74.7592 85.4047L74.7588 85.4043ZM69.9999 76.8159L70.0881 76.8674C70.1084 76.8748 70.1623 76.8865 70.1873 76.8932C70.2587 76.9115 70.3091 76.9256 70.3758 76.9435C70.516 76.9806 70.6202 77.0149 70.749 77.061C72.0329 77.5205 72.5174 78.5491 73.0631 79.7955C73.1697 80.0391 73.2809 80.2597 73.3742 80.5153C73.4355 80.6824 73.5702 81.1797 73.6319 81.2812C73.6924 81.1255 73.393 79.8143 73.3266 79.5703C73.0639 78.6092 72.563 77.5525 71.6777 77.0739C71.0894 76.7557 70.7354 76.7405 69.9999 76.8159ZM71.5957 93.0066C71.6047 93.0039 71.6137 92.9996 71.6461 93.0015C71.6593 93.0023 71.6851 93.0082 71.6988 93.0125L71.9794 93.1518C72.1001 93.2198 72.2148 93.2752 72.3327 93.3404C72.5771 93.4754 72.8125 93.598 73.0518 93.7292C73.6073 94.0325 73.9566 94.4841 73.7728 95.1567C73.4738 96.2505 72.0884 96.1764 71.8729 96.6222C71.7124 96.9548 71.9498 97.2116 72.2937 97.2015L77.6276 97.0512C77.9317 97.043 77.9403 97.0715 78.1429 96.9204C78.2674 96.8275 78.3334 96.7182 78.2585 96.5218C78.0523 95.9831 76.6072 96.1514 76.261 95.1099C76.1591 94.8039 76.1618 94.4576 76.2906 94.1804C76.4152 93.9134 76.6345 93.803 76.8836 93.6316C77.0472 93.5192 78.2015 92.8005 78.3186 92.8025C78.3147 92.9188 77.943 93.1909 77.8533 93.2674C77.685 93.411 77.5269 93.5406 77.3524 93.6866C76.9734 94.0044 76.535 94.2753 76.5455 94.734C76.5709 95.8137 78.4458 95.7337 78.668 94.6676C78.7741 94.159 78.8456 93.6144 78.9256 93.0995C79.0243 92.464 78.7589 92.0553 78.1089 92.1197C77.9594 92.1345 76.9898 92.5413 76.7458 92.6303C75.9182 92.9321 75.5731 92.9844 74.7573 93.0074C73.366 93.0468 72.2133 92.284 71.634 92.302L71.609 92.3028C70.61 92.3332 71.0758 93.6425 71.2007 94.23C71.2807 94.6055 71.3568 94.9975 71.5582 95.2567C71.9619 95.7755 73.1299 95.877 73.4164 95.0853C73.649 94.4416 73.0576 94.1769 72.6739 93.8986L71.9244 93.3111C71.812 93.219 71.5879 93.0796 71.5953 93.0066H71.5957ZM84.5656 80.7179C85.0684 80.6079 85.6137 80.374 86.2176 80.8261C86.5713 81.0907 86.8683 81.5803 86.9706 82.192C86.9659 82.1869 86.9593 82.1717 86.9573 82.1756L86.9222 82.1256C86.6946 81.7516 86.6037 81.4538 86.0876 81.1153C85.4045 80.6676 84.7662 80.8023 84.5656 80.7179ZM89.344 77.7484C89.839 77.7102 91.0484 77.9893 91.5059 78.1447C92.1964 78.3793 92.9428 78.6432 92.9607 79.3802L92.9647 79.5718C92.7902 79.4508 92.6282 79.2396 92.2265 78.9652C91.5215 78.4843 90.7161 78.1322 89.8737 77.9026C89.7113 77.8581 89.4861 77.8242 89.344 77.7484ZM95.0121 78.7439L94.9945 78.1126C94.9368 78.019 94.904 77.8132 94.856 77.6907C94.8048 77.5603 94.7318 77.4237 94.6577 77.314C94.2044 76.6433 93.4792 76.2163 92.6641 75.9235C91.4383 75.4828 90.1267 75.3758 88.7159 75.5815C87.4402 75.7677 86.3413 76.283 85.4431 76.9037C84.8166 77.337 84.6772 77.638 83.9609 77.7051C83.0018 77.7953 82.6789 77.2531 82.4014 77.0579C82.2288 77.3616 82.2261 77.9873 82.3132 78.3387C82.4174 78.7575 82.6368 79.0484 82.764 79.4465C82.9799 80.1238 83.0576 81.7739 83.1954 82.1318C83.3383 82.5031 83.9683 82.1361 85.3139 83.0324C87.4949 84.485 90.5147 83.4392 92.326 82.1763C93.0486 81.6724 93.6365 81.1602 94.1108 80.5306C94.1756 80.4447 94.2193 80.3897 94.2806 80.3053C94.5792 79.8939 94.8727 79.4192 94.9703 78.9016L95.0121 78.7439ZM61.2831 82.8076C61.296 82.5979 61.4142 82.208 61.4946 82.0358C61.7133 81.567 62.1181 81.2282 62.6548 81.1926C62.914 81.1758 63.3528 81.2102 63.5351 81.3289C62.5842 81.3804 61.8811 81.6751 61.4396 82.4918C61.3893 82.5847 61.3444 82.7236 61.2831 82.8076ZM57.0464 81.3917L58.0505 80.8343C58.3838 80.657 58.7496 80.4755 59.1142 80.3186C59.7993 80.0247 60.7362 79.6562 61.5235 79.541L60.7896 80.043C60.5839 80.2066 60.3099 80.4322 60.1459 80.6172C59.8329 80.9701 59.2602 81.6185 59.1224 82.0545C59.2481 81.9933 60.0858 81.3222 60.4727 81.0954C60.9099 80.839 61.5794 80.504 62.1911 80.5017C61.9041 80.6688 61.7773 80.6414 61.3799 80.9623C60.174 81.9355 60.2716 82.847 59.4007 82.8716C59.1076 82.8798 58.4689 82.7072 58.1687 82.6272C57.2935 82.3938 56.3399 81.9495 55.6357 81.3999C55.4772 81.2762 55.3796 81.193 55.1754 81.095C55.3132 80.7148 56.7369 80.0863 57.1819 79.9165C57.5832 79.7635 57.9724 79.6444 58.401 79.5207C58.6875 79.4379 59.4245 79.2447 59.7161 79.2338C59.0112 79.694 58.1492 80.0727 57.5649 80.6894C57.4591 80.8015 57.1019 81.2129 57.0461 81.3913L57.0464 81.3917ZM55.065 80.6243C54.8026 79.8994 55.7672 79.4032 56.3141 79.1702C56.8821 78.9281 57.9435 78.5877 58.6145 78.6143C58.5283 78.6709 57.7452 78.9043 57.5637 78.975C55.6973 79.7003 55.3019 80.4884 55.0646 80.6246L55.065 80.6243ZM52.8945 79.2998L52.9105 79.8709C53.0265 80.1675 52.9297 80.3042 53.3614 80.9697C53.6874 81.4725 53.9384 81.6669 54.2429 82.0042C54.319 82.0885 54.3506 82.1291 54.4369 82.2076L54.8534 82.5589C55.8191 83.3033 56.6436 83.7601 57.8971 84.1414C58.6091 84.3581 59.7126 84.6126 60.5297 84.5275C62.5814 84.3136 63.1295 83.2069 64.3318 82.8837C65.1321 82.6682 65.0247 83.0148 65.1079 81.3519C65.1301 80.9073 65.1399 80.3518 65.2265 79.9368C65.3093 79.5418 65.5154 79.2104 65.6239 78.8141C65.7242 78.4464 65.7215 77.8347 65.4826 77.5419C65.3226 77.6571 65.2503 77.8328 64.8705 78.0564C63.7841 78.697 63.1151 77.8917 62.4452 77.5181C61.4228 76.9474 60.4375 76.5329 59.0865 76.3997C57.7612 76.2694 56.2306 76.4837 55.1309 76.9646C54.4978 77.2418 53.8107 77.6399 53.4274 78.1314C53.2502 78.3582 53.1124 78.5616 53.0155 78.8524C52.971 78.9863 52.9476 79.2002 52.8949 79.2998H52.8945ZM70.8127 98.1313L79.3218 97.8877C79.2266 98.0544 78.2674 98.8914 78.068 99.0229C77.4 99.4648 76.9679 99.4152 76.1052 99.4394L74.046 99.4976C73.149 99.523 72.4733 99.5882 71.7687 98.9425L70.8123 98.1313H70.8127ZM68.7269 96.3454C68.6379 95.9386 68.8417 95.6908 68.99 95.4433C69.4967 94.5989 69.67 93.7393 69.9207 92.7747C70.085 92.1427 70.546 91.8301 71.1366 91.5576C72.8109 90.7843 75.8839 90.7437 77.6128 91.0259C78.2823 91.1352 78.8928 91.3608 79.3597 91.6813C79.9413 92.0807 79.9745 92.4968 80.213 93.2838C80.4129 93.9443 80.6416 94.4517 80.9813 94.9459C81.3958 95.5498 81.5426 96.1721 80.9758 96.6526C79.4885 97.9123 76.503 97.253 74.6093 97.4158C73.8493 97.481 71.826 97.6594 71.0949 97.5868C70.7498 97.5524 70.4086 97.481 70.0721 97.4154C69.5241 97.3084 68.8593 96.945 68.7277 96.3458L68.7269 96.3454ZM68.2515 91.2211C68.2273 90.3674 68.2433 89.5129 68.246 88.6591C68.2827 88.6939 68.294 88.6037 68.3112 88.8855C68.3167 88.9777 68.3272 89.0616 68.3358 89.1584C68.3518 89.3345 68.3729 89.5129 68.3963 89.6834C68.4888 90.3615 68.6168 90.8889 68.8987 91.5068C68.9596 91.6399 69.0252 91.7633 69.0982 91.8831C69.1532 91.9737 69.2855 92.1478 69.3168 92.2325C68.9467 92.3887 68.7566 92.2805 68.5692 92.0346C68.4025 91.8156 68.2608 91.5552 68.2515 91.2211ZM80.4199 87.7925C80.4847 87.8374 80.4449 87.7714 80.4632 87.8737C80.4683 87.9018 80.466 87.9869 80.4675 88.0221L80.5054 88.8902C80.5159 89.2665 80.6077 90.9287 80.5089 91.1664C80.455 91.296 80.3547 91.4264 80.2887 91.5142C80.2029 91.629 80.1306 91.7633 79.8945 91.6509C79.6778 91.5474 79.9019 91.1762 80.0194 90.8241C80.2271 90.2018 80.3219 89.5343 80.3571 88.8746L80.3871 87.837C80.4105 87.7792 80.3637 87.8351 80.4199 87.7929V87.7925ZM65.7106 85.1704C65.8667 85.3055 66.1599 85.9137 66.2563 86.2037C66.6221 87.3018 66.4671 88.0322 66.4519 89.1135C66.4257 90.9818 66.3125 91.2824 67.4891 92.7689C67.6839 93.0152 68.5134 93.9583 68.5759 94.0704C68.6816 94.2612 68.7394 94.4947 68.716 94.7523C68.5677 94.6965 67.4134 93.3392 67.2463 93.1272C66.8259 92.594 66.327 91.9304 66.1517 91.0915C66.0537 90.623 65.8136 86.0702 65.711 85.1708L65.7106 85.1704ZM65.6637 82.9255C65.7598 83.2128 65.9995 83.5496 66.1821 83.6789C67.0085 84.2644 67.5242 83.4977 68.2425 83.9006C68.3815 83.9787 68.8136 84.3924 68.8659 84.5572C68.6254 84.4635 68.4904 84.2574 67.9243 84.2121C67.4426 84.1738 65.7894 84.6091 65.5595 83.472C65.5271 83.3119 65.5513 83.0593 65.6641 82.9251L65.6637 82.9255ZM82.4767 82.4235C82.8925 82.6643 82.7777 83.6449 81.7421 83.8584C81.3006 83.9494 80.9641 83.8147 80.5319 83.8405C80.0791 83.8678 79.839 83.99 79.574 84.2293C79.4584 84.3335 79.4128 84.2894 79.4943 84.1785C79.5373 84.12 79.5958 84.0509 79.6431 84.0005C79.7493 83.8873 79.8586 83.7593 79.9741 83.6621C80.3547 83.3404 80.4734 83.3908 80.9598 83.477C81.8463 83.634 82.3171 83.1663 82.4771 82.4238L82.4767 82.4235ZM66.6482 82.7951C66.5651 82.7467 66.4144 82.6042 66.3797 82.4875C66.4558 82.2985 66.6346 82.1365 66.8177 82.3177C66.9192 82.418 66.9152 82.4722 66.8262 82.5839C66.7661 82.6596 66.7173 82.7342 66.6482 82.7951ZM81.5886 81.6907C81.6585 81.7329 81.8158 81.8875 81.8471 81.9749C81.89 82.0944 81.7343 82.2501 81.6292 82.2544C81.5125 82.2595 81.3521 82.1026 81.3603 81.996C81.3654 81.9292 81.5328 81.7333 81.5886 81.6907ZM71.0336 72.2131C71.027 72.2197 71.0363 72.2357 70.9856 72.2459C70.9333 72.2564 70.9555 72.2404 70.9395 72.233C70.9583 72.1651 71.0016 72.1912 71.0336 72.2131Z" fill="#1C1B17"/>
<path fill-rule="evenodd" clip-rule="evenodd" d="M124.829 47.4713L125.154 47.718L125.546 47.4389L129.041 46.4509C128.612 45.3114 128.429 45.817 127.055 46.251C126.021 46.5778 125.257 46.5243 124.829 47.4717V47.4713ZM127.146 69.8716L127.53 69.1818L127.156 69.854L127.143 69.8513C127.243 68.7313 127.156 69.4844 127.53 69.1814L130.53 69.4719C131.925 69.6706 131.129 69.3875 131.418 70.0098C131.066 70.2635 131.931 70.429 129.842 70.153C129.253 70.075 128.756 70.0621 128.169 70.0676L127.242 69.872C127.971 69.8735 127.689 69.7557 128.169 70.0676L127.146 69.8712V69.8716ZM29.4579 38.8404L29.2354 40.4549L29.881 40.1629C30.7324 39.9232 30.9194 39.6387 31.5549 39.2901L31.574 45.4094L33.1847 45.4555L33.1808 36.7671C30.4806 36.6258 32.9723 37.0989 29.4579 38.8404ZM127.522 64.8542L131.754 64.8312L131.754 64.7766H131.759L131.662 62.9422L131.752 64.6485L131.733 62.9106L127.481 62.9415L127.522 64.8542ZM73.0327 6.07201L74.8744 6.00057L74.8752 6.03726L74.9763 6.04117L74.9584 10.1607L72.9913 10.1353L73.0842 6.36673L73.0331 6.07201H73.0327ZM74.3798 6.0197L73.0936 5.97363L73.0912 6.06966L74.3798 6.0197ZM52.9488 22.9787C52.9644 23.0072 53.0624 23.0505 53.1101 23.4038C53.2537 24.4711 52.9492 27.6068 53.226 29.0598L54.8277 29.0742V28.961L53.2486 28.9493L54.8331 28.9614L54.8409 20.2278C53.274 20.2063 53.6109 20.2578 52.7622 21.2447C52.1455 21.9622 51.8722 22.1031 51.0115 22.5411L51.0704 23.8882L52.9488 22.9791V22.9787ZM16.1457 64.1894L16.0918 64.6364C17.2887 64.9479 19.123 64.8507 20.1777 64.7063L20.1215 62.7576L16.4345 62.8122L16.1457 64.1891V64.1894ZM17.4026 51.6728C17.5814 52.3087 16.668 51.9164 19.2014 52.477C20.1247 52.6811 20.6876 53.0652 21.2743 52.5566C21.0967 52.0054 21.8981 52.2935 19.4345 51.7649C18.6694 51.6006 17.9343 51.2774 17.4026 51.6728ZM17.3378 75.7544C17.7489 76.0803 17.2024 75.9195 17.8238 76.0011C17.955 76.0183 18.263 75.9535 18.4121 75.9265C18.7166 75.8711 19.1542 75.7481 19.4645 75.6872C21.9227 75.2048 21.1111 75.4522 21.2235 74.8706C20.704 74.4553 20.0563 74.8093 19.237 74.9873C16.6867 75.5405 17.6173 75.1177 17.3378 75.7544ZM51.7473 14.7701L52.2774 14.6393C52.4496 14.0581 51.971 13.4132 51.67 12.7316C50.7401 10.6272 51.3382 11.203 50.4973 10.959C50.2862 11.3322 50.301 10.8817 50.3275 11.4223L51.7473 14.7701ZM16.3682 69.7892C16.6477 70.0094 16.3678 70.1675 17.581 70.0601C17.8734 70.0344 18.2419 69.9633 18.5409 69.9352C19.2764 69.8665 19.8448 69.9337 20.3702 69.5687C20.0891 68.6209 19.3986 69.1104 18.2735 69.2252C15.8002 69.4777 16.7503 69.1873 16.3682 69.7896V69.7892ZM18.9516 46.1495C19.5364 46.5333 20.2863 46.691 20.9995 46.9385C21.8735 47.2422 22.3732 47.6634 22.8065 47.0193C22.4106 46.3986 21.6045 46.3541 20.7406 46.0691C19.8085 45.7615 19.0824 45.1545 18.9516 46.1495ZM31.0256 25.1397C30.992 25.2377 30.7039 25.3494 31.3234 25.981L33.8463 27.955C33.867 27.9258 34.17 27.3941 34.2375 27.2809C32.1748 26.2328 32.1904 25.2213 31.6131 25.0164C30.6243 24.6654 31.2352 25.0144 31.0252 25.1397H31.0256ZM62.8696 11.2119C63.2209 10.6861 62.7528 8.81275 62.5565 8.04139C62.2524 6.84766 62.5194 7.48747 61.9858 7.24154C61.5329 7.84504 61.7972 8.15343 62.0513 9.38971C62.1169 9.70903 62.1899 10.2263 62.2645 10.5101C62.6049 11.8029 62.2106 11.0343 62.8696 11.2119ZM27.2293 29.7812C27.0048 30.5299 26.9115 29.9162 28.5499 31.2087L29.8498 32.1655C30.4779 32.3256 30.1082 32.258 30.4658 32.0437C30.5552 31.4633 30.7067 31.8181 29.0855 30.6583L27.7977 29.7144C26.6512 29.2991 27.6735 29.5696 27.2293 29.7812ZM17.348 57.3901C15.8345 57.3179 16.8472 57.3202 16.4142 57.6384C16.7324 57.9795 15.6905 57.9526 17.2949 58.1903L19.3564 58.4117C19.6992 58.4281 19.689 58.4226 20.0165 58.3695L20.4104 58.1845C20.2765 57.684 20.6774 57.855 19.7874 57.6688L17.3484 57.3901H17.348ZM85.1836 11.3326C85.7551 10.9883 85.4283 11.8303 85.9705 9.3374C86.1454 8.53364 86.4788 7.85831 86.0673 7.30985C85.4697 7.4742 85.7816 6.53849 85.2449 9.13051C84.6714 11.9017 84.8334 10.8516 85.1836 11.3326ZM21.163 40.1848C21.2368 41.1107 20.5131 40.3413 21.8805 40.9717C24.8442 42.3384 24.3609 42.3372 24.8438 41.731C24.4702 41.0982 21.7107 39.8577 21.163 40.1848ZM42.4672 20.2036C42.4652 19.4838 40.7991 17.2395 40.1941 16.855C39.5195 17.6096 40.4626 18.274 41.446 19.6235C42.1732 20.6217 41.4924 20.4421 42.4672 20.2036ZM79.8812 10.3906C80.11 9.74924 80.1119 9.17892 80.1842 8.46923C80.2177 8.13899 80.2884 7.79 80.3192 7.48512C80.3286 7.393 80.37 6.89763 80.359 6.82931C80.2595 6.21371 80.3754 6.68995 80.1022 6.32223C79.4846 6.60524 79.7555 5.82334 79.5479 7.22397C79.5038 7.52026 79.4971 8.02773 79.4577 8.37242C79.1762 10.8485 79.0416 10.2598 79.8812 10.391V10.3906ZM127.229 58.3012C127.641 58.6002 127.12 58.4722 127.81 58.6061L130.706 58.3437C131.881 58.0994 131.058 58.4972 131.455 57.8593C131.044 57.5458 131.563 57.6938 130.917 57.5673C130.825 57.5494 130.369 57.5833 130.255 57.5931C129.949 57.6196 129.573 57.6942 129.236 57.725C126.703 57.9565 127.628 57.7711 127.229 58.3012ZM117.331 32.3146C117.617 32.436 117.268 32.5344 117.804 32.4118C118.316 32.2947 120.531 30.5154 120.886 30.2039C120.687 29.9361 120.702 29.9381 120.473 29.6887L117.855 31.5429C117.17 32.0047 117.206 31.4293 117.331 32.3146ZM127.147 69.872C127.181 69.8724 127.213 69.8728 127.243 69.8728L127.147 69.872ZM57.3252 12.6836C57.6309 12.2464 58.1602 13.7032 57.0964 10.6022C56.9672 10.2263 56.9102 9.99283 56.7888 9.59817C56.3481 8.16006 56.856 9.16291 56.2416 8.74678C55.601 9.26441 56.1213 9.99322 56.3915 10.8544C56.573 11.4341 56.6963 12.6032 57.3252 12.6836ZM35.0979 21.0003C35.635 22.0379 35.9001 21.9052 37.0622 23.3558C37.7031 24.156 37.1863 23.946 38.0681 23.7641C38.1326 23.0376 38.1911 23.4362 37.7141 22.9326C37.3471 22.5454 37.3179 22.5005 37.004 22.0859C36.4528 21.3571 36.0667 21.1994 35.5374 20.6139L35.0979 21.0003ZM68.3932 10.3824C68.6751 10.0553 68.7266 10.8602 68.6961 9.49004L68.449 7.231C68.2683 5.97246 68.4881 6.62593 67.9513 6.27968C67.4606 6.91519 67.4997 5.04379 67.8104 8.44581C67.8393 8.76435 67.8416 9.19297 67.8853 9.48964C68.0591 10.6705 67.8705 10.117 68.3932 10.3824ZM122.886 41.9516C123.419 42.5867 124.13 41.9961 125.947 41.1943C127.099 40.6852 126.57 41.0213 126.798 40.4053C126.019 39.9705 125.372 40.6891 123.848 41.2684C122.815 41.6615 123.159 41.4671 122.886 41.9516H122.886ZM95.7886 14.7888C96.5951 14.7096 96.138 14.9676 97.0151 13.1177L97.6229 11.7171C97.7681 11.1799 97.585 12.4139 97.6787 11.4056L97.6409 11.1097C96.8367 10.9352 97.3465 10.2766 96.3507 12.6965C95.9869 13.5811 95.4568 14.1486 95.7886 14.7888ZM90.7072 12.8237C91.137 12.5321 90.8005 13.5252 91.3248 11.8299C92.079 9.3901 92.5286 9.10943 91.591 8.86467C91.1678 9.49277 91.0496 10.1525 90.797 10.9117C90.4749 11.8798 90.0116 12.326 90.7072 12.8237ZM126.371 52.7771C126.757 53.0106 125.815 53.2386 127.488 52.9302L129.684 52.4711C130.907 52.153 130.246 52.4574 130.497 51.8934C129.922 51.4487 129.628 51.6888 128.36 51.9515C125.548 52.534 126.735 52.0772 126.371 52.7771H126.371ZM109.807 23.9823C109.81 23.9831 109.853 24.7377 110.806 23.613C111.673 22.5899 110.992 23.0571 112.274 21.977C112.405 21.8669 112.637 21.717 112.713 21.5105C112.97 20.811 112.61 20.7583 112.248 20.8828C112.017 20.9621 111.877 21.1069 111.756 21.2283L110.394 22.9814C110.295 23.0841 109.926 23.3741 109.913 23.3933L109.784 23.8102C109.778 23.8433 109.798 23.9249 109.807 23.9819L109.807 23.9823ZM113.623 27.9379C114.579 28.329 114.266 27.939 115.391 27.0896C117.022 25.8576 116.408 26.0626 117.13 25.4431L116.746 24.9945C116.087 25.347 115.742 25.6289 115.205 26.2339C113.894 27.7111 114.168 26.5876 113.623 27.9375L113.623 27.9379ZM105.486 20.359C106.443 20.8407 105.458 21.0554 107.634 18.2112C108.736 16.7703 108.069 17.3602 107.951 17.1302C107.213 16.9101 107.935 16.6809 106.525 18.4579C105.635 19.5806 105.274 19.8152 105.486 20.359ZM129.548 75.3437C127.468 74.871 126.494 74.3389 126.372 75.3125C127.138 75.7977 129.759 76.4656 130.427 75.9753C130.264 75.3695 130.693 75.6041 129.548 75.3437H129.548ZM47.7956 22.8565L47.8159 29.0137L49.4363 28.9969L49.4375 20.2711C49.3969 20.2707 48.7247 20.2524 48.7181 20.2539C47.9908 20.412 48.4561 20.2071 48.1653 20.601C47.5762 20.9738 46.9353 22.0922 45.5546 22.3869L45.5967 23.98C46.0726 23.8316 46.354 23.7473 46.8307 23.4807C47.3978 23.1629 47.1749 23.1114 47.7956 22.8565ZM23.5068 35.5449L24.2812 36.1621C24.5729 36.3553 24.7903 36.472 25.1096 36.6469C25.7295 36.9861 26.2311 37.2832 26.8577 37.5865C27.4608 36.8678 27.4939 36.6988 27.8148 35.8611L24.1958 34.3961L23.5064 35.5449H23.5068ZM73.0339 6.0724C73.0526 6.16921 73.0698 6.26797 73.085 6.36712L73.0339 6.0724ZM99.9951 17.1494L101.864 17.8653C102.084 16.7332 103.145 15.4388 103.643 14.3356L102.196 13.4128L99.9951 17.1494ZM44.3229 14.3879C45.0346 15.2132 45.6213 16.7637 46.2748 17.6034L47.8729 16.8273C47.4966 15.7265 46.6761 14.2056 45.8586 13.3336C45.4097 13.5006 45.4456 13.4593 45.0443 13.7169C44.5732 14.0194 44.5724 14.0889 44.3229 14.3879ZM119.924 36.0454C120.149 36.6336 120.084 36.5243 120.372 37.0209L120.975 37.7887C121.973 37.3839 123.676 36.4548 124.419 35.7662C124.104 34.9461 123.965 34.7033 123.363 34.2563C122.667 34.7704 120.729 35.8794 119.924 36.0457V36.0454ZM68.2574 16.177L68.2031 17.626C69.1154 17.407 69.7919 17.0178 70.3177 16.5459L70.3072 22.7624L72.0435 22.7581L71.7082 13.9394C70.2681 13.9503 70.7705 13.9648 69.9016 14.9657C69.2735 15.6898 69.2407 15.6676 68.2577 16.1766L68.2574 16.177ZM95.0274 23.9722C96.1782 23.5845 96.2836 23.305 97.1779 22.8631L97.2064 29.0844L98.6617 29.0668C99.216 28.1096 98.9084 22.4439 98.9564 20.2051C96.768 20.2145 97.8493 20.3648 96.5802 21.5265C95.1347 22.8495 95.0278 21.53 95.0278 23.9722H95.0274ZM119.265 62.5253C118.343 63.244 118.572 62.2837 118.242 63.8241C118.835 64.2917 119.7 63.99 120.027 64.7891C120.48 65.893 119.63 68.0865 117.868 66.0714C117.299 65.4218 117.107 65.6888 116.056 65.7411C116.482 67.8753 118.323 69.0147 120.576 67.8636C121.296 67.4954 121.932 66.6515 121.868 65.3863C121.799 64.0317 121.112 63.9447 120.422 63.3822C121.085 62.9621 121.56 62.4921 121.475 61.4093C121.347 59.7748 119.178 58.7774 117.504 59.6694C116.581 60.1617 116.387 60.7367 116.189 61.7227C118.319 61.9062 117.665 61.7063 117.833 61.5455C118.235 61.1614 117.878 60.8265 118.78 60.7952C119.693 60.764 120.136 61.8469 119.265 62.5253ZM73.765 16.6236C73.8021 16.6251 74.8088 16.6739 74.8139 16.6731C76.3481 16.4518 75.209 15.2186 76.7642 15.3908C77.9267 15.5192 77.9759 16.7442 77.2053 17.847C76.0326 19.5255 74.089 19.8261 73.5737 22.7972L79.4464 22.7234L79.4593 21.1881L76.2536 21.1522C76.875 19.8936 80.2341 18.4575 79.3203 15.5684C78.7156 13.6568 74.3498 12.6422 73.765 16.6239V16.6236ZM110.431 43.6895L109.705 45.562L115.813 45.5909L115.6 44.0404L112.438 44.0314C113.362 42.5726 116.563 41.1982 115.482 38.2045C115.11 37.1743 113.862 36.6008 112.366 36.7968C110.59 37.0295 110.165 38.1018 109.972 39.4294L111.476 39.4849C112.252 38.4898 112.137 38.005 113.745 38.361C114.568 41.3399 111.555 41.6678 110.431 43.6895ZM37.905 38.076C39.4282 38.9106 39.194 44.0872 37.8925 44.1915C36.3697 44.3133 35.9645 38.7568 37.905 38.076ZM40.6645 41.731C40.6645 39.6488 40.4802 36.7761 37.9097 36.6984C33.8983 36.577 33.9533 45.0393 37.2511 45.5944C39.6616 46 40.6645 43.9182 40.6645 41.7314V41.731ZM29.3349 63.6765C27.4576 64.3655 26.6625 62.4219 27.5502 61.179C28.5538 59.7737 29.9361 61.3656 29.3349 63.6765ZM25.8864 66.2545C26.1909 69.028 29.6523 68.8059 30.8374 66.9021C31.7442 65.4456 31.6642 61.5666 30.6098 60.3049C29.1569 58.5662 25.9091 59.2127 25.6374 61.8313C25.3532 64.5724 27.8383 66.1257 29.6695 64.6392C29.6125 65.6404 29.4688 66.0745 29.1534 66.7499C27.1988 67.066 28.124 66.6909 27.0755 65.9203L25.886 66.2549L25.8864 66.2545Z" fill="#727271"/>
<path fill-rule="evenodd" clip-rule="evenodd" d="M73.9154 0C108.635 0 136.781 28.1457 136.781 62.8654C136.781 66.3807 136.488 69.8272 135.933 73.1855C134.938 73.2425 134.029 73.5404 133.219 73.9694C133.889 70.3698 134.242 66.6594 134.242 62.8658C134.242 29.5478 107.233 2.53854 73.9151 2.53854C40.5971 2.53854 13.5878 29.5478 13.5878 62.8658C13.5878 66.7 13.9496 70.4494 14.6335 74.0853C13.6268 73.5782 12.6946 73.3034 11.8936 73.1652C11.3412 69.8135 11.0488 66.374 11.0488 62.8658C11.0488 28.1461 39.1949 0.000390746 73.9147 0.000390746L73.9154 0Z" fill="#009846"/>
<path fill-rule="evenodd" clip-rule="evenodd" d="M17.9881 85.7962C17.8901 85.0319 17.8901 83.9006 18.2153 82.9899C18.3784 82.5324 18.6267 82.1229 18.9933 81.8457C19.3622 81.5674 19.8419 81.4304 20.4521 81.5038C21.6801 81.6509 22.4168 82.5718 22.8391 83.6301C23.2611 84.688 23.3794 85.9067 23.3599 86.7081L23.5195 95.6966L23.5227 95.8856L23.3638 95.7837C22.1322 94.9936 19.3614 92.8501 18.1329 91.8793L18.0954 91.8496L18.0943 91.8016L17.9873 85.7966L17.9881 85.7962ZM129.923 85.7962C130.021 85.0315 130.021 83.9006 129.696 82.9895C129.533 82.532 129.284 82.1221 128.918 81.8457C128.549 81.567 128.069 81.4304 127.459 81.5034C126.231 81.6505 125.494 82.5714 125.072 83.6297C124.65 84.6876 124.531 85.9063 124.551 86.7073L124.391 95.6959L124.388 95.8848L124.547 95.7829C125.779 94.9928 128.549 92.8493 129.778 91.8785L129.815 91.8488L129.817 91.8008L129.923 85.7962ZM123.566 90.9404C123.628 90.3272 123.625 89.0975 123.257 88.0861C123.072 87.5794 122.792 87.1184 122.373 86.8201C121.951 86.5196 121.4 86.3939 120.692 86.5383C119.555 86.7698 118.888 87.5462 118.518 88.4093C118.15 89.2677 118.071 90.2206 118.111 90.8393L117.96 99.3204L117.958 99.4804L118.103 99.4145C119.82 98.6341 122.362 97.1948 123.418 96.5734L123.468 96.5437L123.468 96.4856C123.46 95.0342 123.468 91.9019 123.566 90.9404H123.566ZM145.645 74.1302C146.189 73.8011 146.603 73.6746 146.915 73.6738C147.221 73.6731 147.434 73.7945 147.585 73.9822C147.739 74.1739 147.831 74.4409 147.876 74.7329C147.921 75.0225 147.919 75.3282 147.89 75.5897C146.85 83.0902 140.874 103.543 118.43 116.361C109.459 121.34 91.5405 126.3 73.9554 120.589C56.3703 126.3 38.4522 121.34 29.4808 116.361C7.0368 103.543 1.06149 83.0902 0.0211726 75.5901C-0.0077144 75.3286 -0.0104459 75.0229 0.034446 74.7333C0.0797283 74.4417 0.172245 74.1747 0.326048 73.9826C0.476729 73.7949 0.689867 73.6738 0.995912 73.6742C1.30742 73.675 1.72199 73.8015 2.26616 74.1306C4.99246 75.7802 6.65698 79.0531 8.55493 83.3701C9.03586 84.4639 10.2105 86.0453 11.8863 87.8702C13.5641 89.6979 15.7517 91.7778 18.2676 93.8705C23.2986 98.0544 29.6483 102.294 35.8683 104.665C37.4247 105.258 38.6473 105.55 39.5928 105.597C40.5383 105.644 41.2175 105.446 41.6715 105.046C42.1263 104.646 42.3378 104.059 42.382 103.368C42.4257 102.677 42.3031 101.871 42.0782 101.014C41.6285 99.3005 40.7627 97.36 39.9593 95.6892C39.7095 95.1692 39.4644 94.6739 39.2399 94.2195L39.2395 94.2187L39.2372 94.214C39.1021 93.9404 38.9745 93.6816 38.857 93.4415C38.5427 92.7974 38.3065 92.2887 38.2023 91.9702C37.7819 90.6859 37.7198 88.6861 38.2371 86.7858C38.7543 84.8863 39.845 83.1039 41.7129 82.2279C42.6451 81.7907 43.2579 81.866 43.6846 82.2084C44.1241 82.5609 44.3954 83.2175 44.5859 84.0138C44.7327 84.6278 44.828 85.3075 44.9205 85.968C44.9474 86.1604 44.9744 86.3509 45.0021 86.5379C45.1235 87.3573 45.2644 88.1138 45.5365 88.5838C45.7004 88.8672 45.8679 89.2451 46.0752 89.7135H46.0756C46.1939 89.9805 46.325 90.2768 46.4761 90.602C46.8895 91.4916 47.445 92.5788 48.2729 93.8205C49.9285 96.3036 52.6704 99.3969 57.5398 102.753C58.5707 103.464 59.5916 104.145 60.603 104.821C64.3673 107.337 68.0105 109.77 71.621 113.304C72.4002 114.085 73.1782 114.914 73.9566 115.803C74.7346 114.914 75.5129 114.085 76.2921 113.304C79.9026 109.77 83.5459 107.336 87.3102 104.821C88.3216 104.145 89.3424 103.463 90.3733 102.752C95.2424 99.3965 97.9843 96.3033 99.6398 93.8201C100.468 92.5788 101.023 91.4912 101.437 90.6016C101.588 90.2764 101.719 89.9801 101.837 89.7131H101.838C102.045 89.2451 102.212 88.8672 102.376 88.5834C102.648 88.1134 102.79 87.3565 102.911 86.5375C102.938 86.3505 102.965 86.1596 102.992 85.9672C103.085 85.3067 103.18 84.6271 103.327 84.013C103.517 83.2167 103.789 82.5605 104.228 82.208C104.654 81.8656 105.267 81.7903 106.2 82.2275C108.068 83.1035 109.158 84.8859 109.676 86.7854C110.193 88.6857 110.131 90.6851 109.71 91.9698C109.606 92.2884 109.37 92.797 109.056 93.4411C108.939 93.6812 108.811 93.94 108.676 94.2136L108.673 94.2183L108.673 94.2191C108.448 94.6735 108.203 95.1689 107.953 95.6888C107.15 97.3596 106.284 99.3001 105.835 101.014C105.61 101.871 105.487 102.677 105.531 103.368C105.575 104.059 105.786 104.646 106.241 105.046C106.695 105.446 107.374 105.643 108.32 105.597C109.265 105.55 110.488 105.258 112.044 104.665C118.264 102.294 124.614 98.054 129.645 93.8701C132.161 91.7778 134.348 89.6975 136.026 87.8698C137.702 86.0449 138.876 84.4635 139.357 83.3697C141.255 79.0527 142.919 75.7798 145.646 74.1302H145.645ZM24.3452 90.9404C24.2831 90.3276 24.2862 89.0975 24.6543 88.0861C24.839 87.5794 25.1185 87.1184 25.5373 86.8201C25.9593 86.5196 26.5109 86.3939 27.2186 86.5379C28.3558 86.7694 29.0229 87.5462 29.393 88.4089C29.7607 89.2673 29.8395 90.2198 29.7997 90.8389L29.9504 99.3204L29.9535 99.4804L29.8079 99.4145C28.0911 98.6341 25.549 97.1948 24.4935 96.573L24.4431 96.5437L24.4435 96.4856C24.4513 95.0342 24.4428 91.9019 24.3452 90.9404ZM10.746 77.8449C10.3518 79.0589 10.3342 80.6188 10.4377 81.6841L10.4786 84.0037L10.4794 84.0396L10.5028 84.0669C11.8434 85.658 14.9432 89.1881 16.5925 90.5403L16.7616 90.6789L16.7577 90.4603L16.5996 81.5752C16.6538 80.8042 16.5605 79.6097 16.1038 78.5183C15.6451 77.4225 14.8156 76.4224 13.3954 76.0734C12.6791 75.8973 12.1115 76.0281 11.6732 76.3677C11.2395 76.7042 10.944 77.2371 10.746 77.8449ZM137.165 77.8449C137.559 79.0589 137.577 80.6188 137.474 81.6841L137.432 84.0037L137.432 84.0396L137.408 84.0669C136.068 85.658 132.968 89.1881 131.318 90.5403L131.149 90.6789L131.153 90.4603L131.311 81.5752C131.257 80.8042 131.35 79.6097 131.807 78.5183C132.265 77.4225 133.095 76.4224 134.515 76.073C135.231 75.897 135.799 76.0277 136.237 76.3677C136.671 76.7042 136.966 77.2367 137.164 77.8449H137.165Z" fill="#EF7F1A"/>
<path d="M50.4462 58.7589C49.2662 58.7589 48.2491 58.5691 47.3946 58.1893C46.5538 57.796 45.7807 57.2061 45.0755 56.4194L47.1505 54.3647C47.6116 54.8937 48.1202 55.3073 48.6763 55.6057C49.2459 55.8905 49.9037 56.0329 50.6496 56.0329C51.3277 56.0329 51.8499 55.9109 52.216 55.6667C52.5958 55.4226 52.7857 55.0836 52.7857 54.6496C52.7857 54.2563 52.6636 53.9375 52.4195 53.6934C52.1754 53.4493 51.8499 53.2391 51.443 53.0628C51.0497 52.8865 50.6089 52.7169 50.1207 52.5542C49.646 52.3914 49.1713 52.2083 48.6966 52.0049C48.2219 51.7879 47.7812 51.5234 47.3743 51.2115C46.981 50.886 46.6623 50.4859 46.4182 50.0112C46.174 49.523 46.052 48.9127 46.052 48.1803C46.052 47.2988 46.2622 46.5393 46.6826 45.9019C47.1166 45.2644 47.7134 44.783 48.4729 44.4575C49.2323 44.1184 50.1071 43.9489 51.0972 43.9489C52.1008 43.9489 53.0162 44.1252 53.8435 44.4778C54.6844 44.8305 55.3761 45.3119 55.9186 45.9222L53.8435 47.9769C53.4095 47.5293 52.9688 47.1971 52.5212 46.9801C52.0872 46.7631 51.5922 46.6546 51.0361 46.6546C50.4801 46.6546 50.0393 46.7631 49.7138 46.9801C49.3883 47.1835 49.2256 47.4819 49.2256 47.8752C49.2256 48.2414 49.3476 48.5397 49.5917 48.7703C49.8359 48.9873 50.1546 49.1772 50.5479 49.3399C50.9548 49.5027 51.3955 49.6654 51.8702 49.8282C52.3585 49.9909 52.8399 50.1808 53.3146 50.3978C53.7893 50.6148 54.2233 50.8928 54.6166 51.2319C55.0234 51.5574 55.3489 51.9778 55.5931 52.4932C55.8372 52.995 55.9592 53.6188 55.9592 54.3647C55.9592 55.7345 55.471 56.8127 54.4945 57.5994C53.518 58.3724 52.1686 58.7589 50.4462 58.7589ZM60.9768 58.5352V44.3761H64.1707V58.5352H60.9768ZM56.4809 46.9597V44.1727H68.6666V46.9597H56.4809ZM74.008 58.7589C72.8281 58.7589 71.8109 58.5691 70.9565 58.1893C70.1156 57.796 69.3426 57.2061 68.6373 56.4194L70.7124 54.3647C71.1735 54.8937 71.6821 55.3073 72.2381 55.6057C72.8078 55.8905 73.4655 56.0329 74.2114 56.0329C74.8896 56.0329 75.4117 55.9109 75.7779 55.6667C76.1576 55.4226 76.3475 55.0836 76.3475 54.6496C76.3475 54.2563 76.2255 53.9375 75.9813 53.6934C75.7372 53.4493 75.4117 53.2391 75.0048 53.0628C74.6115 52.8865 74.1708 52.7169 73.6825 52.5542C73.2078 52.3914 72.7332 52.2083 72.2585 52.0049C71.7838 51.7879 71.343 51.5234 70.9362 51.2115C70.5428 50.886 70.2241 50.4859 69.98 50.0112C69.7359 49.523 69.6138 48.9127 69.6138 48.1803C69.6138 47.2988 69.824 46.5393 70.2445 45.9019C70.6785 45.2644 71.2752 44.783 72.0347 44.4575C72.7942 44.1184 73.669 43.9489 74.659 43.9489C75.6626 43.9489 76.5781 44.1252 77.4054 44.4778C78.2462 44.8305 78.9379 45.3119 79.4804 45.9222L77.4054 47.9769C76.9714 47.5293 76.5306 47.1971 76.083 46.9801C75.6491 46.7631 75.154 46.6546 74.598 46.6546C74.0419 46.6546 73.6011 46.7631 73.2756 46.9801C72.9502 47.1835 72.7874 47.4819 72.7874 47.8752C72.7874 48.2414 72.9095 48.5397 73.1536 48.7703C73.3977 48.9873 73.7164 49.1772 74.1097 49.3399C74.5166 49.5027 74.9574 49.6654 75.4321 49.8282C75.9203 49.9909 76.4018 50.1808 76.8764 50.3978C77.3511 50.6148 77.7851 50.8928 78.1784 51.2319C78.5853 51.5574 78.9108 51.9778 79.1549 52.4932C79.399 52.995 79.5211 53.6188 79.5211 54.3647C79.5211 55.7345 79.0328 56.8127 78.0564 57.5994C77.0799 58.3724 75.7304 58.7589 74.008 58.7589ZM81.5556 58.5352V44.1727H83.8341L89.4895 52.9814H88.33L93.9651 44.1727H96.2639V58.5352H93.07V49.5637L93.6396 49.7061L89.9574 55.443H87.8417L84.1799 49.7061L84.7292 49.5637V58.5352H81.5556Z" fill="#2B2A29"/>
</svg>
